<?xml version="1.0" encoding="UTF-8" standalone="no"?>
<!DOCTYPE svg PUBLIC "-//W3C//DTD SVG 1.1//EN"
 "http://www.w3.org/Graphics/SVG/1.1/DTD/svg11.dtd">
<!-- Generated by graphviz version 2.38.0 (20140413.2041)
 -->
<!-- Title: process_flow Pages: 1 -->
<svg width="383pt" height="504pt"
 viewBox="0.00 0.00 382.78 504.00" xmlns="http://www.w3.org/2000/svg" xmlns:xlink="http://www.w3.org/1999/xlink">

<g id="graph0" class="graph" transform="scale(0.868966 0.868966) rotate(0) translate(4 576)"> <!-- -->
<title>process_flow</title>
<polygon fill="white" stroke="none" points="-4,4 -4,-576 436.5,-576 436.5,4 -4,4"/>


<!-- Insert Date Appeal to Prefecture -->
<g id="node1" class="node"><title>Insert Date Appeal to Prefecture</title>
<polygon fill="#fcfcfc" stroke="black" points="197,-305 -1.42109e-014,-305 -1.42109e-014,-267 197,-267 197,-305"/>
<text text-anchor="middle" x="98.5" y="-289.8" font-family="Times New Roman,serif" font-size="14.00">Insert Date Appeal to Prefecture</text>
<text text-anchor="middle" x="98.5" y="-274.8" font-family="Times New Roman,serif" font-size="14.00">(2430)</text>
</g>
<!-- Add penalty -->
<g id="node4" class="node"><title>Add penalty</title>
<polygon fill="#7f7f7f" stroke="black" points="213,-216 128,-216 128,-178 213,-178 213,-216"/>
<text text-anchor="middle" x="170.5" y="-200.8" font-family="Times New Roman,serif" font-size="14.00">Add penalty</text>
<text text-anchor="middle" x="170.5" y="-185.8" font-family="Times New Roman,serif" font-size="14.00">(76540)</text>
</g>
<!-- Insert Date Appeal to Prefecture&#45;&gt;Add penalty -->
<g id="edge1" class="edge"><title>Insert Date Appeal to Prefecture&#45;&gt;Add penalty</title>
<path fill="none" stroke="black" stroke-width="0.400319" d="M113.418,-266.974C123.748,-254.492 137.653,-237.69 149.153,-223.794"/>
<polygon fill="black" stroke="black" stroke-width="0.400319" points="151.921,-225.939 155.601,-216.003 146.529,-221.476 151.921,-225.939"/>
<text text-anchor="middle" x="153.5" y="-237.8" font-family="Times New Roman,serif" font-size="14.00">2430</text>
</g>
<!-- Send Fine -->
<g id="node2" class="node"><title>Send Fine</title>
<polygon fill="#575757" stroke="black" points="370,-483 297,-483 297,-445 370,-445 370,-483"/>
<text text-anchor="middle" x="333.5" y="-467.8" font-family="Times New Roman,serif" font-size="14.00" fill="white">Send Fine</text>
<text text-anchor="middle" x="333.5" y="-452.8" font-family="Times New Roman,serif" font-size="14.00" fill="white">(100056)</text>
</g>
<!-- Insert Fine Notification -->
<g id="node3" class="node"><title>Insert Fine Notification</title>
<polygon fill="#000000" stroke="black" points="262,-394 117,-394 117,-356 262,-356 262,-394"/>
<text text-anchor="middle" x="189.5" y="-378.8" font-family="Times New Roman,serif" font-size="14.00" fill="white">Insert Fine Notification</text>
<text text-anchor="middle" x="189.5" y="-363.8" font-family="Times New Roman,serif" font-size="14.00" fill="white">(152025)</text>
</g>
<!-- Send Fine&#45;&gt;Insert Fine Notification -->
<g id="edge2" class="edge"><title>Send Fine&#45;&gt;Insert Fine Notification</title>
<path fill="none" stroke="black" stroke-width="1.91953" d="M303.663,-444.974C281.749,-431.734 251.788,-413.633 228.059,-399.296"/>
<polygon fill="black" stroke="black" stroke-width="1.91953" points="229.668,-396.179 219.299,-394.003 226.048,-402.17 229.668,-396.179"/>
<text text-anchor="middle" x="287.5" y="-415.8" font-family="Times New Roman,serif" font-size="14.00">76540</text>
</g>
<!-- Payment -->
<g id="node8" class="node"><title>Payment</title>
<polygon fill="#858585" stroke="black" points="357,-127 292,-127 292,-89 357,-89 357,-127"/>
<text text-anchor="middle" x="324.5" y="-111.8" font-family="Times New Roman,serif" font-size="14.00">Payment</text>
<text text-anchor="middle" x="324.5" y="-96.8" font-family="Times New Roman,serif" font-size="14.00">(74035)</text>
</g>
<!-- Send Fine&#45;&gt;Payment -->
<g id="edge3" class="edge"><title>Send Fine&#45;&gt;Payment</title>
<path fill="none" stroke="black" stroke-width="0.414689" d="M336.497,-444.726C339.115,-427.161 342.5,-399.84 342.5,-376 342.5,-376 342.5,-376 342.5,-196 342.5,-175.946 337.857,-153.822 333.287,-136.902"/>
<polygon fill="black" stroke="black" stroke-width="0.414689" points="336.602,-135.762 330.494,-127.105 329.87,-137.682 336.602,-135.762"/>
<text text-anchor="middle" x="356.5" y="-282.3" font-family="Times New Roman,serif" font-size="14.00">3131</text>
</g>
<!-- Insert Fine Notification&#45;&gt;Insert Date Appeal to Prefecture -->
<g id="edge6" class="edge"><title>Insert Fine Notification&#45;&gt;Insert Date Appeal to Prefecture</title>
<path fill="none" stroke="black" stroke-width="0.400319" d="M170.645,-355.974C157.345,-343.259 139.356,-326.06 124.669,-312.018"/>
<polygon fill="black" stroke="black" stroke-width="0.400319" points="126.978,-309.384 117.331,-305.003 122.141,-314.444 126.978,-309.384"/>
<text text-anchor="middle" x="163.5" y="-326.8" font-family="Times New Roman,serif" font-size="14.00">2430</text>
</g>
<!-- Insert Fine Notification&#45;&gt;Insert Fine Notification -->
<g id="edge4" class="edge"><title>Insert Fine Notification&#45;&gt;Insert Fine Notification</title>
<path fill="none" stroke="black" stroke-width="1.8979" d="M262.288,-382.444C272.871,-381.263 280,-378.781 280,-375 280,-372.578 277.074,-370.689 272.189,-369.333"/>
<polygon fill="black" stroke="black" stroke-width="1.8979" points="272.749,-365.878 262.288,-367.556 271.512,-372.768 272.749,-365.878"/>
<text text-anchor="middle" x="297" y="-371.3" font-family="Times New Roman,serif" font-size="14.00">75485</text>
</g>
<!-- Insert Fine Notification&#45;&gt;Add penalty -->
<g id="edge5" class="edge"><title>Insert Fine Notification&#45;&gt;Add penalty</title>
<path fill="none" stroke="black" stroke-width="1.80364" d="M196.474,-355.641C203.655,-334.18 212.839,-297.69 205.5,-267 201.99,-252.322 194.819,-237.236 187.876,-224.928"/>
<polygon fill="black" stroke="black" stroke-width="1.80364" points="190.771,-222.947 182.677,-216.111 184.742,-226.503 190.771,-222.947"/>
<text text-anchor="middle" x="225.5" y="-282.3" font-family="Times New Roman,serif" font-size="14.00">70887</text>
</g>
<!-- Insert Fine Notification&#45;&gt;Payment -->
<g id="edge7" class="edge"><title>Insert Fine Notification&#45;&gt;Payment</title>
<path fill="none" stroke="black" stroke-width="0.416575" d="M207.177,-355.867C219.409,-342.599 235.417,-323.718 246.5,-305 279.73,-248.879 304.473,-175.989 316.457,-136.82"/>
<polygon fill="black" stroke="black" stroke-width="0.416575" points="319.833,-137.747 319.361,-127.163 313.129,-135.731 319.833,-137.747"/>
<text text-anchor="middle" x="295.5" y="-237.8" font-family="Times New Roman,serif" font-size="14.00">3223</text>
</g>
<!-- Send for Credit Collection -->
<g id="node5" class="node"><title>Send for Credit Collection</title>
<polygon fill="#9e9e9e" stroke="black" points="179.5,-38 15.5,-38 15.5,-0 179.5,-0 179.5,-38"/>
<text text-anchor="middle" x="97.5" y="-22.8" font-family="Times New Roman,serif" font-size="14.00">Send for Credit Collection</text>
<text text-anchor="middle" x="97.5" y="-7.8" font-family="Times New Roman,serif" font-size="14.00">(57967)</text>
</g>
<!-- Add penalty&#45;&gt;Send for Credit Collection -->
<g id="edge8" class="edge"><title>Add penalty&#45;&gt;Send for Credit Collection</title>
<path fill="none" stroke="black" stroke-width="1.50835" d="M127.985,-189.253C92.4793,-181.133 44.0057,-163.686 20.5,-127 1.73314,-97.7101 32.3955,-65.4813 60.407,-44.1288"/>
<polygon fill="black" stroke="black" stroke-width="1.50835" points="62.5821,-46.874 68.5747,-38.1367 58.4415,-41.2299 62.5821,-46.874"/>
<text text-anchor="middle" x="37.5" y="-104.3" font-family="Times New Roman,serif" font-size="14.00">56482</text>
</g>
<!-- Send Appeal to Prefecture -->
<g id="node6" class="node"><title>Send Appeal to Prefecture</title>
<polygon fill="#fafafa" stroke="black" points="227.5,-127 63.5,-127 63.5,-89 227.5,-89 227.5,-127"/>
<text text-anchor="middle" x="145.5" y="-111.8" font-family="Times New Roman,serif" font-size="14.00">Send Appeal to Prefecture</text>
<text text-anchor="middle" x="145.5" y="-96.8" font-family="Times New Roman,serif" font-size="14.00">(4860)</text>
</g>
<!-- Add penalty&#45;&gt;Send Appeal to Prefecture -->
<g id="edge10" class="edge"><title>Add penalty&#45;&gt;Send Appeal to Prefecture</title>
<path fill="none" stroke="black" stroke-width="0.400319" d="M155.613,-177.986C151.931,-172.532 148.477,-166.307 146.5,-160 144.267,-152.878 143.396,-144.918 143.232,-137.443"/>
<polygon fill="black" stroke="black" stroke-width="0.400319" points="146.734,-137.395 143.403,-127.337 139.735,-137.277 146.734,-137.395"/>
<text text-anchor="middle" x="160.5" y="-148.8" font-family="Times New Roman,serif" font-size="14.00">2430</text>
</g>
<!-- Add penalty&#45;&gt;Payment -->
<g id="edge9" class="edge"><title>Add penalty&#45;&gt;Payment</title>
<path fill="none" stroke="black" stroke-width="0.711868" d="M175.749,-177.8C179.887,-166.679 186.783,-153.085 197.5,-145 226.04,-123.471 243.036,-136.372 281.924,-126.591"/>
<polygon fill="black" stroke="black" stroke-width="0.711868" points="283.075,-129.902 291.717,-123.772 281.139,-123.175 283.075,-129.902"/>
<text text-anchor="middle" x="214.5" y="-148.8" font-family="Times New Roman,serif" font-size="14.00">17628</text>
</g>
<!-- Send Appeal to Prefecture&#45;&gt;Send Appeal to Prefecture -->
<g id="edge11" class="edge"><title>Send Appeal to Prefecture&#45;&gt;Send Appeal to Prefecture</title>
<path fill="none" stroke="black" stroke-width="0.400319" d="M227.885,-115.23C238.492,-113.977 245.5,-111.566 245.5,-108 245.5,-105.715 242.624,-103.905 237.768,-102.569"/>
<polygon fill="black" stroke="black" stroke-width="0.400319" points="238.35,-99.1179 227.885,-100.77 237.096,-106.005 238.35,-99.1179"/>
<text text-anchor="middle" x="259.5" y="-104.3" font-family="Times New Roman,serif" font-size="14.00">2430</text>
</g>
<!-- Create Fine -->
<g id="node7" class="node"><title>Create Fine</title>
<polygon fill="#080808" stroke="black" points="408.5,-572 328.5,-572 328.5,-534 408.5,-534 408.5,-572"/>
<text text-anchor="middle" x="368.5" y="-556.8" font-family="Times New Roman,serif" font-size="14.00" fill="white">Create Fine</text>
<text text-anchor="middle" x="368.5" y="-541.8" font-family="Times New Roman,serif" font-size="14.00" fill="white">(146427)</text>
</g>
<!-- Create Fine&#45;&gt;Send Fine -->
<g id="edge13" class="edge"><title>Create Fine&#45;&gt;Send Fine</title>
<path fill="none" stroke="black" stroke-width="2.40159" d="M353.703,-533.805C349.879,-528.348 346.109,-522.167 343.5,-516 340.502,-508.916 338.392,-500.895 336.911,-493.346"/>
<polygon fill="black" stroke="black" stroke-width="2.40159" points="340.362,-492.76 335.257,-483.477 333.458,-493.918 340.362,-492.76"/>
<text text-anchor="middle" x="364" y="-504.8" font-family="Times New Roman,serif" font-size="14.00">100056</text>
</g>
<!-- Create Fine&#45;&gt;Payment -->
<g id="edge12" class="edge"><title>Create Fine&#45;&gt;Payment</title>
<path fill="none" stroke="black" stroke-width="1.30108" d="M378.657,-533.955C387.36,-516.778 398.5,-489.924 398.5,-465 398.5,-465 398.5,-465 398.5,-196 398.5,-170.495 379.819,-148.657 361.229,-133.239"/>
<polygon fill="black" stroke="black" stroke-width="1.30108" points="363.349,-130.454 353.322,-127.033 359.027,-135.96 363.349,-130.454"/>
<text text-anchor="middle" x="415.5" y="-326.8" font-family="Times New Roman,serif" font-size="14.00">46371</text>
</g>
<!-- Payment&#45;&gt;Add penalty -->
<g id="edge16" class="edge"><title>Payment&#45;&gt;Add penalty</title>
<path fill="none" stroke="black" stroke-width="0.416575" d="M291.714,-124.984C279.847,-130.998 266.433,-138.065 254.5,-145 243.948,-151.132 241.869,-153.564 231.5,-160 224.742,-164.195 217.504,-168.569 210.46,-172.763"/>
<polygon fill="black" stroke="black" stroke-width="0.416575" points="208.516,-169.847 201.694,-177.952 212.082,-175.87 208.516,-169.847"/>
<text text-anchor="middle" x="268.5" y="-148.8" font-family="Times New Roman,serif" font-size="14.00">3223</text>
</g>
<!-- Payment&#45;&gt;Send for Credit Collection -->
<g id="edge14" class="edge"><title>Payment&#45;&gt;Send for Credit Collection</title>
<path fill="none" stroke="black" stroke-width="0.380947" d="M291.547,-92.7008C288.496,-91.4304 285.446,-90.1798 282.5,-89 241.02,-72.3869 193.817,-54.8024 157.473,-41.5431"/>
<polygon fill="black" stroke="black" stroke-width="0.380947" points="158.596,-38.2273 148.002,-38.0959 156.202,-44.8051 158.596,-38.2273"/>
<text text-anchor="middle" x="246.5" y="-59.8" font-family="Times New Roman,serif" font-size="14.00">1485</text>
</g>
<!-- Payment&#45;&gt;Payment -->
<g id="edge15" class="edge"><title>Payment&#45;&gt;Payment</title>
<path fill="none" stroke="black" stroke-width="0.425984" d="M357.042,-116.242C367.101,-116.075 375,-113.328 375,-108 375,-104.67 371.915,-102.348 367.145,-101.034"/>
<polygon fill="black" stroke="black" stroke-width="0.425984" points="367.402,-97.539 357.042,-99.7581 366.525,-104.484 367.402,-97.539"/>
<text text-anchor="middle" x="389" y="-104.3" font-family="Times New Roman,serif" font-size="14.00">3682</text>
</g>
</g>
</svg>
